#N canvas 869 138 770 717 10;
#X obj 285 75 inlet;
#X obj 313 672 outlet~;
#X msg 447 425 1;
#X obj 232 400 noise~;
#X obj 314 603 vcf~ 4;
#X obj 270 461 *~ 1.2;
#X obj 576 445 loadbang;
#X obj 89 213 metro 1000;
#X obj 106 160 tgl 15 0 empty empty empty 17 7 0 10 -262144 -1 -1 0
1;
#X obj 270 433 adsr 1 123 0 0;
#X floatatom 123 388 5 0 0 0 - - -, f 5;
#X msg 551 511 12000;
#X obj 290 506 hip~ 10000;
#X text 71 320 14;
#X obj 67 444 fm_synth 1361 14 3;
#X obj 69 488 *~ 0.07;
#X obj 309 630 *~ 0.8;
#X obj 285 561 adsr 1 \$1 0 0;
#X connect 0 0 2 0;
#X connect 2 0 9 1;
#X connect 2 0 17 1;
#X connect 3 0 9 0;
#X connect 4 0 16 0;
#X connect 5 0 12 0;
#X connect 6 0 11 0;
#X connect 7 0 2 0;
#X connect 8 0 7 0;
#X connect 9 0 5 0;
#X connect 10 0 14 1;
#X connect 11 0 4 1;
#X connect 12 0 17 0;
#X connect 14 0 15 0;
#X connect 15 0 17 0;
#X connect 16 0 1 0;
#X connect 17 0 4 0;
