#N canvas 2170 265 847 553 10;
#X obj 497 66 inlet;
#X obj 462 486 outlet~;
#X obj 283 275 expr~ $v1 > 0.5;
#X obj 284 249 phasor~ 60;
#X msg 633 105 1, f 2;
#X obj 632 161 bng 15 250 50 0 empty empty empty 17 7 0 10 -262144
-1 -1;
#X obj 600 217 vline~;
#X text 31 10 inspiriert durch https://www.soundonsound.com/techniques/synthesizing-drums-bass-drum
31.01.2020;
#X obj 338 307 adsr 1 309 0 0;
#X obj 682 270 vline~;
#X obj 457 287 vline~;
#X msg 460 257 800 0 \, 60 30;
#X obj 92 280 fm_synth 1234 2345 3;
#X obj 445 358 vcf~ 5;
#X obj 487 399 *~;
#X obj 482 422 *~ 1.2;
#X obj 207 357 vline~;
#X obj 176 409 *~;
#X msg 149 327 3000;
#X obj 133 173 loadbang;
#X msg 230 333 1 0 \, 0 10;
#X msg 632 182 70 0 \, 60 200;
#X msg 685 240 1 0 \, 0 200;
#X obj 126 371 vcf~ 1;
#X obj 176 430 *~ 0.02;
#X connect 0 0 4 0;
#X connect 2 0 8 0;
#X connect 3 0 2 0;
#X connect 4 0 5 0;
#X connect 4 0 8 1;
#X connect 5 0 21 0;
#X connect 5 0 22 0;
#X connect 5 0 11 0;
#X connect 5 0 20 0;
#X connect 6 0 3 0;
#X connect 8 0 13 0;
#X connect 9 0 14 1;
#X connect 10 0 13 1;
#X connect 11 0 10 0;
#X connect 12 0 23 0;
#X connect 13 1 14 0;
#X connect 14 0 15 0;
#X connect 15 0 1 0;
#X connect 16 0 17 1;
#X connect 17 0 24 0;
#X connect 18 0 23 1;
#X connect 19 0 18 0;
#X connect 20 0 16 0;
#X connect 21 0 6 0;
#X connect 22 0 9 0;
#X connect 23 0 17 0;
#X connect 24 0 14 0;
