#N canvas 460 279 738 677 10;
#X obj 205 452 osc~;
#X floatatom 108 212 5 0 0 0 - - -, f 5;
#X text 144 210 freq;
#X obj 195 301 *~;
#X obj 203 426 +~;
#X floatatom 195 223 5 0 0 0 - - -, f 5;
#X text 226 213 harmonicity;
#X obj 199 335 osc~ 40;
#X floatatom 305 213 5 0 0 0 - - -, f 5;
#X text 346 215 modulation index;
#X obj 192 247 t b f;
#X obj 305 233 t b f;
#X text 34 13 FM inspuired by https://www.youtube.com/watch?v=mvtN7de6Oko
(29.01.2020);
#X obj 172 159 f \$1;
#X obj 228 494 outlet~;
#X obj 148 102 loadbang;
#X obj 232 160 f \$2;
#X obj 306 160 f \$3;
#X obj 320 330 *~;
#X obj 240 384 *~;
#X obj 276 49 inlet;
#X obj 332 49 inlet;
#X obj 382 53 inlet;
#X connect 0 0 14 0;
#X connect 1 0 3 0;
#X connect 1 0 4 0;
#X connect 3 0 7 0;
#X connect 3 0 18 0;
#X connect 4 0 0 0;
#X connect 5 0 10 0;
#X connect 7 0 19 0;
#X connect 8 0 11 0;
#X connect 10 0 1 0;
#X connect 10 1 3 1;
#X connect 11 0 5 0;
#X connect 11 1 18 1;
#X connect 13 0 1 0;
#X connect 15 0 17 0;
#X connect 15 0 16 0;
#X connect 15 0 13 0;
#X connect 16 0 5 0;
#X connect 17 0 8 0;
#X connect 18 0 19 1;
#X connect 19 0 4 1;
#X connect 20 0 13 0;
#X connect 21 0 16 0;
#X connect 22 0 17 0;
