#N canvas 904 124 770 717 10;
#X obj 285 75 inlet;
#X obj 313 672 outlet~;
#X msg 447 425 1;
#X obj 232 400 noise~;
#X obj 324 492 hip~ 1200;
#X obj 67 346 fm_synth 222 177 4;
#X obj 314 603 vcf~ 4;
#X obj 270 461 *~ 1.2;
#X msg 551 511 600;
#X obj 576 445 loadbang;
#X obj 270 434 adsr 1 120 0 0;
#X obj 163 456 adsr 1 300 0 0;
#X obj 209 487 *~ 0.8;
#X obj 69 488 *~ 0.2;
#X obj 289 561 adsr 1 100 0 0;
#X obj 309 630 *~ 3;
#X connect 0 0 2 0;
#X connect 2 0 10 1;
#X connect 2 0 11 1;
#X connect 2 0 14 1;
#X connect 3 0 10 0;
#X connect 3 0 11 0;
#X connect 4 0 14 0;
#X connect 5 0 13 0;
#X connect 6 0 15 0;
#X connect 7 0 4 0;
#X connect 8 0 6 1;
#X connect 9 0 8 0;
#X connect 10 0 7 0;
#X connect 11 0 12 0;
#X connect 12 0 14 0;
#X connect 13 0 14 0;
#X connect 14 0 6 0;
#X connect 15 0 1 0;
