#N canvas 2102 117 770 717 10;
#X obj 285 75 inlet;
#X obj 313 672 outlet~;
#X msg 447 425 1;
#X obj 233 385 noise~;
#X obj 324 492 hip~ 1200;
#X obj 314 603 vcf~ 4;
#X obj 270 461 *~ 1.2;
#X msg 551 511 600;
#X obj 576 445 loadbang;
#X obj 209 487 *~ 0.8;
#X obj 69 488 *~ 0.2;
#X obj 309 630 *~ 3;
#X obj 270 425 adsr 1 20 0 0;
#X obj 163 456 adsr 1 30 0 0;
#X floatatom 117 247 5 0 0 0 - - -, f 5;
#X obj 119 308 t b f;
#X obj 67 346 fm_synth 222 1 2;
#X text 42 73 222 66 2 melodisches perk;
#X text 43 95 222 67 2;
#X text 42 120 222 91 2;
#X text 48 140 222 96 2;
#X obj 163 277 + 1;
#X obj 178 230 f;
#X obj 158 193 bng 15 250 50 0 empty empty empty 17 7 0 10 -262144
-1 -1;
#X text 42 158 222 147 2;
#X obj 289 561 adsr 1 50 0 0;
#X connect 0 0 2 0;
#X connect 2 0 12 1;
#X connect 2 0 13 1;
#X connect 2 0 25 1;
#X connect 3 0 12 0;
#X connect 3 0 13 0;
#X connect 4 0 25 0;
#X connect 5 0 11 0;
#X connect 6 0 4 0;
#X connect 7 0 5 1;
#X connect 8 0 7 0;
#X connect 9 0 25 0;
#X connect 10 0 25 0;
#X connect 11 0 1 0;
#X connect 12 0 6 0;
#X connect 13 0 9 0;
#X connect 14 0 15 0;
#X connect 14 0 21 0;
#X connect 15 0 2 0;
#X connect 15 1 16 1;
#X connect 16 0 10 0;
#X connect 21 0 22 1;
#X connect 22 0 14 0;
#X connect 23 0 22 0;
#X connect 25 0 5 0;
