#N canvas 788 182 944 686 10;
#X obj 245 164 *~;
#X obj 245 192 wrap~ 1;
#X obj 245 221 outlet~;
#X obj 293 123 inlet;
#X obj 314 191 expr 1/$f1;
#X obj 312 219 outlet;
#X text 203 103 main phasor;
#X text 291 103 Division;
#X obj 245 124 inlet~;
#X msg 404 108 1;
#X obj 404 78 loadbang;
#X connect 0 0 1 0;
#X connect 1 0 2 0;
#X connect 3 0 0 1;
#X connect 3 0 4 0;
#X connect 4 0 5 0;
#X connect 8 0 0 0;
#X connect 9 0 0 1;
#X connect 9 0 4 0;
#X connect 10 0 9 0;
