#N canvas -8 -8 1920 997 12;
#X text 494 14 Johannes Kreidler;
#X text 485 40 www.pd-tutorial.com;
#X obj 1571 189 metro 100;
#X obj 1571 143 loadbang, f 9;
#X msg 1571 166 1;
#X text 679 13 http://www.pd-tutorial.com/german/ch03s04.html 27.01.2020
;
#X obj 563 382 hsl 128 15 -1 2 0 0 empty empty empty -2 -6 0 8 -262144
-1 -1 8467 1;
#X text 590 319 Abspielgeschwindigkeit;
#X floatatom 86 293 5 0 0 0 - - -, f 5;
#X text 86 235 LAutst채rke;
#X floatatom 170 306 5 0 0 0 - - -, f 5;
#X text 165 234 LAutst채rke;
#X floatatom 244 289 5 0 0 0 - - -, f 5;
#X text 244 231 LAutst채rke;
#X obj 1570 213 s metro-timeline;
#X obj 1667 492 hsl 200 15 0 1 0 0 empty empty empty -2 -6 0 8 -262144
-1 -1 19900 1;
#X obj 1615 517 sel 0;
#X msg 429 317 0;
#X msg 469 315 1;
#X msg 1652 328 0;
#X text 1638 293 reset phase;
#X text 1680 460 right end;
#X floatatom 326 290 5 0 0 0 - - -, f 5;
#X text 326 232 LAutst채rke;
#X obj 508 112 bng 15 250 50 0 empty empty empty 17 7 0 10 -262144
-1 -1;
#X obj 505 162 t b b b;
#X obj 508 604 sampleplayer;
#X msg 1635 428 1;
#X msg 469 260 1.068;
#X msg 517 262 1.136;
#X msg 564 264 1.271;
#X text 147 61 Sample_Elastik_TheFuture_g_125bpm - 8 bars;
#X msg 737 410 1;
#X msg 855 400 2;
#X msg 974 394 3;
#X msg 1068 394 4;
#X text 763 413 bass future;
#X text 882 403 drums future;
#X text 977 419 guit future;
#X text 1106 388 drums future;
#X msg 68 264 0;
#X msg 150 259 0;
#X msg 226 258 0;
#X msg 319 257 0;
#X msg 367 256 1;
#X msg 267 252 1;
#X msg 182 257 1;
#X msg 104 257 1;
#X obj 23 174 tgl 15 0 empty empty empty 17 7 0 10 -262144 -1 -1 0
1;
#X obj 635 653 sampler_slave;
#X obj 748 660 sampler_slave;
#X obj 942 716 sampler_slave;
#X obj 261 718 phasor_divider;
#X obj 261 746 threshold~ 0.1 0 0.01 0;
#X obj 419 776 bng 15 250 50 0 empty empty empty 17 7 0 10 -262144
-1 -1;
#X msg 419 799 1;
#X obj 419 823 + 1;
#X obj 461 824 f;
#X obj 419 874 % 16;
#X floatatom 419 898 5 0 0 0 - - -, f 5;
#X msg 499 789 1;
#X obj 419 847 - 2;
#X obj 914 901 outlet~;
#X obj 997 902 outlet~;
#X obj 419 927 outlet;
#X obj 565 104 inlet;
#X obj 19 116 inlet;
#X msg 356 688 128;
#X obj 105 169 tgl 15 0 empty empty empty 17 7 0 10 -262144 -1 -1 1
1;
#X obj 101 111 inlet;
#X obj 167 166 tgl 15 0 empty empty empty 17 7 0 10 -262144 -1 -1 1
1;
#X obj 163 108 inlet;
#X obj 225 162 tgl 15 0 empty empty empty 17 7 0 10 -262144 -1 -1 1
1;
#X obj 221 104 inlet;
#X obj 1764 223 inlet;
#X text 1756 182 cutoff;
#X obj 337 164 loadbang;
#X connect 2 0 14 0;
#X connect 3 0 4 0;
#X connect 4 0 2 0;
#X connect 6 0 26 1;
#X connect 8 0 26 2;
#X connect 10 0 49 1;
#X connect 12 0 50 1;
#X connect 15 0 16 0;
#X connect 16 1 26 3;
#X connect 16 1 49 2;
#X connect 16 1 50 2;
#X connect 16 1 51 2;
#X connect 17 0 6 0;
#X connect 18 0 6 0;
#X connect 19 0 26 4;
#X connect 19 0 60 0;
#X connect 22 0 51 1;
#X connect 24 0 25 0;
#X connect 25 0 18 0;
#X connect 25 0 27 0;
#X connect 25 0 67 0;
#X connect 25 1 19 0;
#X connect 25 2 32 0;
#X connect 25 2 33 0;
#X connect 25 2 34 0;
#X connect 25 2 35 0;
#X connect 26 0 62 0;
#X connect 26 1 63 0;
#X connect 26 2 49 3;
#X connect 26 2 50 3;
#X connect 26 2 51 3;
#X connect 26 2 52 0;
#X connect 27 0 15 0;
#X connect 28 0 6 0;
#X connect 29 0 6 0;
#X connect 30 0 6 0;
#X connect 32 0 26 0;
#X connect 33 0 49 0;
#X connect 34 0 50 0;
#X connect 35 0 51 0;
#X connect 40 0 8 0;
#X connect 41 0 10 0;
#X connect 42 0 12 0;
#X connect 43 0 22 0;
#X connect 44 0 22 0;
#X connect 45 0 12 0;
#X connect 46 0 10 0;
#X connect 47 0 8 0;
#X connect 48 0 8 0;
#X connect 48 0 12 0;
#X connect 48 0 22 0;
#X connect 49 0 62 0;
#X connect 49 1 63 0;
#X connect 50 0 62 0;
#X connect 50 1 63 0;
#X connect 51 0 62 0;
#X connect 51 1 63 0;
#X connect 52 0 53 0;
#X connect 53 1 54 0;
#X connect 54 0 55 0;
#X connect 55 0 56 0;
#X connect 56 0 57 0;
#X connect 56 0 61 0;
#X connect 57 0 56 1;
#X connect 58 0 59 0;
#X connect 59 0 64 0;
#X connect 60 0 56 1;
#X connect 61 0 58 0;
#X connect 65 0 24 0;
#X connect 66 0 48 0;
#X connect 67 0 52 1;
#X connect 68 0 8 0;
#X connect 69 0 68 0;
#X connect 70 0 12 0;
#X connect 71 0 70 0;
#X connect 72 0 22 0;
#X connect 73 0 72 0;
#X connect 76 0 41 0;
