#N canvas 608 36 883 909 10;
#N canvas 461 244 450 300 (subpatch) 0;
#X array \$0-array1 677376 float 2;
#X coords 0 1 677376 -1 200 140 1 0 0;
#X restore 371 226 graph;
#X obj 41 169 soundfiler;
#X obj 61 215 expr 44100 / $f1;
#X floatatom 47 350 5 0 0 0 - - -, f 5;
#X obj 47 445 phasor~;
#X obj 363 377 hsl 200 15 0 1 0 0 empty empty empty -2 -6 0 8 -262144
-1 -1 12901 1;
#X text 370 397 0;
#X text 570 394 1;
#X obj 190 763 line~;
#X msg 197 726 \$1 20;
#X obj 47 761 *~;
#X obj 48 793 hip~ 5;
#X text 361 432 slider zeugt Abspielposition an;
#X obj 48 411 *;
#X text 130 342 -2;
#X text 268 343 2;
#X obj 368 194 hsl 200 15 0 1 0 0 empty empty empty -2 -6 0 8 -262144
-1 -1 19900 1;
#X obj 370 159 hsl 200 15 0 1 0 0 empty empty empty -2 -6 0 8 -262144
-1 -1 0 1;
#X obj 45 527 +~;
#X obj 198 439 -;
#X floatatom 198 405 5 0 0 0 - - -, f 5;
#X obj 268 364 t f b;
#X obj 46 484 *~;
#X obj 15 262 expr 1 / $f1;
#X obj 15 313 *;
#X text 364 132 0;
#X text 563 132 1;
#X text 333 169 linke Grenze;
#X text 582 184 rechte Grenze;
#X text 243 436 Differenz \, immer;
#X text 243 457 berechnet;
#X obj 84 318 t b f;
#X obj 70 593 *~;
#X obj 201 574 snapshot~;
#X obj 47 6 inlet;
#X obj 415 33 loadbang;
#X msg 415 54 1;
#X obj 228 40 inlet;
#X obj 81 882 outlet~;
#X obj 577 51 inlet;
#X obj 63 189 t b f;
#X obj 45 659 tabread4~ \$0-array1;
#X obj 35 126 list append;
#X obj 99 94 f \$0;
#X obj 45 89 t a b;
#X obj 241 518 r metro-timeline;
#X obj 294 647 loadbang;
#X msg 294 668 1;
#X obj 694 94 inlet;
#X obj 771 106 inlet;
#X msg 47 53 read -resize \$1.wav;
#N canvas 461 244 450 300 (subpatch) 0;
#X array \$0-array2 677376 float 2;
#X coords 0 1 677376 -1 200 140 1 0 0;
#X restore 587 221 graph;
#X obj 313 755 tabread4~ \$0-array1;
#X obj 262 790 *~;
#X obj 256 868 outlet~;
#X msg 42 147 \$1 \$2 \$3 \$4-array1 \$4-array2;
#X obj 226 812 hip~ 5;
#X obj 226 833 *~ 0.5;
#X obj 76 848 *~ 0.5;
#X obj 532 817 outlet~;
#X connect 1 0 40 0;
#X connect 1 0 32 1;
#X connect 2 0 24 1;
#X connect 3 0 13 0;
#X connect 4 0 22 0;
#X connect 4 0 59 0;
#X connect 8 0 10 1;
#X connect 8 0 53 1;
#X connect 9 0 8 0;
#X connect 10 0 11 0;
#X connect 11 0 58 0;
#X connect 13 0 4 0;
#X connect 16 0 20 0;
#X connect 17 0 21 0;
#X connect 18 0 32 0;
#X connect 18 0 33 0;
#X connect 19 0 23 0;
#X connect 19 0 22 1;
#X connect 20 0 19 0;
#X connect 21 0 19 1;
#X connect 21 0 18 1;
#X connect 21 1 20 0;
#X connect 22 0 18 0;
#X connect 23 0 24 0;
#X connect 24 0 3 0;
#X connect 31 0 3 0;
#X connect 31 1 13 1;
#X connect 32 0 41 0;
#X connect 32 0 52 0;
#X connect 33 0 5 0;
#X connect 34 0 50 0;
#X connect 35 0 36 0;
#X connect 36 0 16 0;
#X connect 37 0 31 0;
#X connect 39 0 9 0;
#X connect 40 0 16 0;
#X connect 40 1 2 0;
#X connect 41 0 10 0;
#X connect 42 0 55 0;
#X connect 43 0 42 1;
#X connect 44 0 42 0;
#X connect 44 1 43 0;
#X connect 45 0 33 0;
#X connect 46 0 47 0;
#X connect 47 0 9 0;
#X connect 48 0 16 0;
#X connect 49 0 4 1;
#X connect 50 0 44 0;
#X connect 52 0 53 0;
#X connect 53 0 56 0;
#X connect 55 0 1 0;
#X connect 56 0 57 0;
#X connect 57 0 54 0;
#X connect 58 0 38 0;
