#N canvas 140 54 1920 1037 10;
#X obj 583 520 i, f 2;
#X text 904 39 Inspiriert von "Building a simple sequencer in PD -
by Jaffasplaffa";
#X obj 447 942 outlet~;
#X obj 538 943 outlet~;
#X obj 592 473 r clock;
#X obj 132 715 fm_snare;
#X obj 135 841 vfreeverbsnare~;
#X obj 563 713 fm_kick;
#X obj 307 707 fm_hat 70;
#X obj 381 705 fm_hat 250;
#X obj 218 681 fm_tick;
#X obj 101 101 cnv 15 998 298 empty empty empty 20 12 0 14 -162280
-66577 0;
#X obj 101 186 hradio 31 1 0 16 empty empty Drum_Sequencer 0 -40 0
65 -4034 -258113 -4160 2;
#X text 612 365 Kick;
#X text 606 324 Snare;
#X text 616 280 Hat;
#X obj 100 354 steps bd;
#X obj 100 309 steps snare;
#X obj 101 266 steps hat;
#X obj 100 225 steps crash;
#X text 604 240 tick;
#X connect 0 0 12 0;
#X connect 0 0 16 0;
#X connect 0 0 17 0;
#X connect 0 0 18 0;
#X connect 0 0 19 0;
#X connect 4 0 0 0;
#X connect 5 0 6 0;
#X connect 5 0 6 1;
#X connect 6 0 2 0;
#X connect 6 1 3 0;
#X connect 7 0 2 0;
#X connect 7 0 3 0;
#X connect 8 0 6 0;
#X connect 8 0 6 1;
#X connect 9 0 6 1;
#X connect 9 0 6 0;
#X connect 10 0 6 0;
#X connect 10 0 6 1;
#X connect 16 0 7 0;
#X connect 17 0 5 0;
#X connect 18 0 8 0;
#X connect 19 0 9 0;
#X connect 19 0 10 0;
#X coords 0 -1 1 1 1000 300 1 100 100;
