#N canvas -8 -8 1920 1037 10;
#X obj 36 148 select 192;
#X obj 93 259 spigot;
#X msg 126 236 0;
#X msg 36 197 1;
#X obj 55 321 spigot;
#X msg 88 189 0;
#X obj 36 172 t b b b;
#X msg 36 27 devices;
#X msg 77 72 open \$1;
#X floatatom 101 48 5 0 0 0 - - -, f 5;
#X obj 36 219 t f f;
#X obj 36 125 comport 6 115200;
#X obj 31 528 achterreihe;
#X msg 77 93 close;
#X obj 93 795 outlet;
#X obj 34 580 pack f f f f f f f f f f f f f f f f;
#X obj 180 528 achterreihe;
#X obj 331 527 achterreihe;
#X obj 334 579 pack f f f f f f f f f f f f f f f f;
#X obj 480 527 achterreihe;
#X obj 633 529 achterreihe;
#X obj 636 581 pack f f f f f f f f f f f f f f f f;
#X obj 782 529 achterreihe;
#X obj 932 526 achterreihe;
#X obj 935 578 pack f f f f f f f f f f f f f f f f;
#X obj 1081 526 achterreihe;
#X obj 226 796 outlet;
#X obj 379 797 outlet;
#X obj 540 809 outlet;
#X obj 361 133 stepseq_led;
#X obj 168 98 r toComport;
#X obj 56 289 repack 28;
#X obj 765 309 unpack f f f f f f f f f f f f f f f f f f f f f f f
f f f f f, f 98;
#X obj 1234 523 achterreihe;
#X obj 1237 575 pack f f f f f f f f f f f f f f f f;
#X obj 1383 523 achterreihe;
#X obj 1273 680 achterreihe;
#X obj 1276 732 pack f f f f f f f f f f f f f f f f;
#X obj 1422 680 achterreihe;
#X obj 1286 802 achterreihe;
#X obj 1289 854 pack f f f f f f f f f f f f f f f f;
#X obj 1435 802 achterreihe;
#X connect 0 0 6 0;
#X connect 0 1 1 0;
#X connect 1 0 31 0;
#X connect 2 0 1 1;
#X connect 3 0 10 0;
#X connect 4 0 32 0;
#X connect 5 0 4 1;
#X connect 6 0 3 0;
#X connect 6 1 31 0;
#X connect 6 2 5 0;
#X connect 7 0 11 0;
#X connect 8 0 11 0;
#X connect 9 0 8 0;
#X connect 10 0 4 1;
#X connect 10 1 1 1;
#X connect 11 0 0 0;
#X connect 12 0 15 0;
#X connect 12 1 15 1;
#X connect 12 2 15 2;
#X connect 12 3 15 3;
#X connect 12 4 15 4;
#X connect 12 5 15 5;
#X connect 12 6 15 6;
#X connect 12 7 15 7;
#X connect 13 0 11 0;
#X connect 15 0 14 0;
#X connect 16 0 15 8;
#X connect 16 1 15 9;
#X connect 16 2 15 10;
#X connect 16 3 15 11;
#X connect 16 4 15 12;
#X connect 16 5 15 13;
#X connect 16 6 15 14;
#X connect 16 7 15 15;
#X connect 17 0 18 0;
#X connect 17 1 18 1;
#X connect 17 2 18 2;
#X connect 17 3 18 3;
#X connect 17 4 18 4;
#X connect 17 5 18 5;
#X connect 17 6 18 6;
#X connect 17 7 18 7;
#X connect 18 0 26 0;
#X connect 19 0 18 8;
#X connect 19 1 18 9;
#X connect 19 2 18 10;
#X connect 19 3 18 11;
#X connect 19 4 18 12;
#X connect 19 5 18 13;
#X connect 19 6 18 14;
#X connect 19 7 18 15;
#X connect 20 0 21 0;
#X connect 20 1 21 1;
#X connect 20 2 21 2;
#X connect 20 3 21 3;
#X connect 20 4 21 4;
#X connect 20 5 21 5;
#X connect 20 6 21 6;
#X connect 20 7 21 7;
#X connect 21 0 27 0;
#X connect 22 0 21 8;
#X connect 22 1 21 9;
#X connect 22 2 21 10;
#X connect 22 3 21 11;
#X connect 22 4 21 12;
#X connect 22 5 21 13;
#X connect 22 6 21 14;
#X connect 22 7 21 15;
#X connect 23 0 24 0;
#X connect 23 1 24 1;
#X connect 23 2 24 2;
#X connect 23 3 24 3;
#X connect 23 4 24 4;
#X connect 23 5 24 5;
#X connect 23 6 24 6;
#X connect 23 7 24 7;
#X connect 24 0 28 0;
#X connect 25 0 24 8;
#X connect 25 1 24 9;
#X connect 25 2 24 10;
#X connect 25 3 24 11;
#X connect 25 4 24 12;
#X connect 25 5 24 13;
#X connect 25 6 24 14;
#X connect 25 7 24 15;
#X connect 30 0 11 0;
#X connect 31 0 4 0;
#X connect 32 0 12 0;
#X connect 32 1 12 1;
#X connect 32 2 16 0;
#X connect 32 3 16 1;
#X connect 32 4 17 0;
#X connect 32 5 17 1;
#X connect 32 6 19 0;
#X connect 32 7 19 1;
#X connect 32 8 20 0;
#X connect 32 9 20 1;
#X connect 32 10 22 0;
#X connect 32 11 22 1;
#X connect 32 12 23 0;
#X connect 32 13 23 1;
#X connect 32 14 25 0;
#X connect 32 15 25 1;
#X connect 32 16 33 0;
#X connect 32 17 33 1;
#X connect 32 18 35 0;
#X connect 32 19 35 1;
#X connect 32 20 36 0;
#X connect 32 21 36 1;
#X connect 32 22 38 0;
#X connect 32 23 38 1;
#X connect 32 24 39 0;
#X connect 32 25 39 1;
#X connect 32 26 41 0;
#X connect 32 27 41 1;
#X connect 33 0 34 0;
#X connect 33 1 34 1;
#X connect 33 2 34 2;
#X connect 33 3 34 3;
#X connect 33 4 34 4;
#X connect 33 5 34 5;
#X connect 33 6 34 6;
#X connect 33 7 34 7;
#X connect 35 0 34 8;
#X connect 35 1 34 9;
#X connect 35 2 34 10;
#X connect 35 3 34 11;
#X connect 35 4 34 12;
#X connect 35 5 34 13;
#X connect 35 6 34 14;
#X connect 35 7 34 15;
#X connect 36 0 37 0;
#X connect 36 1 37 1;
#X connect 36 2 37 2;
#X connect 36 3 37 3;
#X connect 36 4 37 4;
#X connect 36 5 37 5;
#X connect 36 6 37 6;
#X connect 36 7 37 7;
#X connect 38 0 37 8;
#X connect 38 1 37 9;
#X connect 38 2 37 10;
#X connect 38 3 37 11;
#X connect 38 4 37 12;
#X connect 38 5 37 13;
#X connect 38 6 37 14;
#X connect 38 7 37 15;
#X connect 39 0 40 0;
#X connect 39 1 40 1;
#X connect 39 2 40 2;
#X connect 39 3 40 3;
#X connect 39 4 40 4;
#X connect 39 5 40 5;
#X connect 39 6 40 6;
#X connect 39 7 40 7;
#X connect 41 0 40 8;
#X connect 41 1 40 9;
#X connect 41 2 40 10;
#X connect 41 3 40 11;
#X connect 41 4 40 12;
#X connect 41 5 40 13;
#X connect 41 6 40 14;
#X connect 41 7 40 15;
