#N canvas 330 63 1455 953 10;
#X msg 730 227 print C;
#X msg 730 248 print S;
#X msg 730 269 print I;
#X text 778 247 all LEDs on;
#X text 780 225 all LEDs off;
#X text 780 269 invert LEDs;
#X obj 583 332 s toComport;
#X obj 510 151 % 16;
#X floatatom 582 178 5 0 0 0 - - -, f 5;
#X msg 450 240 print \$1l1s;
#X obj 510 177 + 1;
#X obj 533 206 sel 1;
#X msg 532 241 print 16l0s;
#X obj 621 220 - 1;
#X msg 618 242 print \$1l0s;
#X obj 507 108 r clock;
#X obj 758 130 r stop;
#X obj 758 162 bng 15 250 50 0 empty empty empty 17 7 0 10 -262144
-1 -1;
#X obj 758 182 delay 100;
#X connect 0 0 6 0;
#X connect 1 0 6 0;
#X connect 2 0 6 0;
#X connect 7 0 8 0;
#X connect 7 0 10 0;
#X connect 9 0 6 0;
#X connect 10 0 9 0;
#X connect 10 0 11 0;
#X connect 11 0 12 0;
#X connect 11 1 13 0;
#X connect 12 0 6 0;
#X connect 13 0 14 0;
#X connect 14 0 6 0;
#X connect 15 0 7 0;
#X connect 16 0 17 0;
#X connect 17 0 2 0;
#X connect 17 0 18 0;
#X connect 18 0 0 0;
