#N canvas -8 -8 1920 997 10;
#X obj 52 53 inlet;
#X obj 101 101 tgl 30 1 empty empty empty 17 7 0 10 -260097 -4160 -1
0 1;
#X obj 132 101 tgl 30 1 empty empty empty 17 7 0 10 -262130 -4160 -1
0 1;
#X obj 163 101 tgl 30 1 empty empty empty 17 7 0 10 -262130 -4160 -1
0 1;
#X obj 194 101 tgl 30 1 empty empty empty 17 7 0 10 -262130 -4160 -1
0 1;
#X obj 225 101 tgl 30 1 empty empty empty 17 7 0 10 -260097 -4160 -1
0 1;
#X obj 256 101 tgl 30 1 empty empty empty 17 7 0 10 -262130 -4160 -1
0 1;
#X obj 287 101 tgl 30 1 empty empty empty 17 7 0 10 -262130 -4160 -1
0 1;
#X obj 318 101 tgl 30 1 empty empty empty 17 7 0 10 -262130 -4160 -1
0 1;
#X obj 349 101 tgl 30 1 empty empty empty 17 7 0 10 -260097 -4160 -1
0 1;
#X obj 380 101 tgl 30 1 empty empty empty 17 7 0 10 -262130 -4160 -1
0 1;
#X obj 411 101 tgl 30 1 empty empty empty 17 7 0 10 -262130 -4160 -1
0 1;
#X obj 442 101 tgl 30 1 empty empty empty 17 7 0 10 -262130 -4160 -1
0 1;
#X obj 473 101 tgl 30 1 empty empty empty 17 7 0 10 -260097 -4160 -1
0 1;
#X obj 504 101 tgl 30 1 empty empty empty 17 7 0 10 -262130 -4160 -1
0 1;
#X obj 535 101 tgl 30 1 empty empty empty 17 7 0 10 -262130 -4160 -1
0 1;
#X obj 566 101 tgl 30 1 empty empty empty 17 7 0 10 -262130 -4160 -1
0 1;
#X obj 106 240 sel 0 1 2 3 4 5 6 7 8 9 10 11 12 13 14 15;
#X obj 106 281 spigot;
#X obj 121 310 spigot;
#X obj 136 336 spigot;
#X obj 151 363 spigot;
#X obj 166 287 spigot;
#X obj 181 316 spigot;
#X obj 196 342 spigot;
#X obj 211 369 spigot;
#X obj 227 287 spigot;
#X obj 242 316 spigot;
#X obj 257 342 spigot;
#X obj 272 369 spigot;
#X obj 288 286 spigot;
#X obj 303 315 spigot;
#X obj 318 341 spigot;
#X obj 333 368 spigot;
#X obj 198 425 t b;
#X obj 210 493 outlet;
#X obj 106 31 r \$1_1;
#X obj 167 29 r \$1_2;
#X obj 222 31 r \$1_3;
#X obj 274 33 r \$1_4;
#X obj 391 30 r \$1_6;
#X obj 334 31 r \$1_5;
#X obj 446 30 r \$1_7;
#X obj 501 30 r \$1_8;
#X obj 561 29 r \$1_9;
#X obj 618 31 r \$1_10;
#X obj 674 29 r \$1_11;
#X obj 728 27 r \$1_12;
#X obj 788 27 r \$1_13;
#X obj 845 27 r \$1_14;
#X obj 901 27 r \$1_15;
#X obj 971 37 r \$1_16;
#X obj 818 547 unpack f f f f f f f f f f f f f f f f;
#X obj 954 416 r \$1_values;
#X connect 0 0 17 0;
#X connect 1 0 18 1;
#X connect 2 0 19 1;
#X connect 3 0 20 1;
#X connect 4 0 21 1;
#X connect 5 0 22 1;
#X connect 6 0 23 1;
#X connect 7 0 24 1;
#X connect 8 0 25 1;
#X connect 9 0 26 1;
#X connect 10 0 27 1;
#X connect 11 0 28 1;
#X connect 12 0 29 1;
#X connect 13 0 30 1;
#X connect 14 0 31 1;
#X connect 15 0 32 1;
#X connect 16 0 33 1;
#X connect 17 0 18 0;
#X connect 17 1 19 0;
#X connect 17 2 20 0;
#X connect 17 3 21 0;
#X connect 17 4 22 0;
#X connect 17 5 23 0;
#X connect 17 6 24 0;
#X connect 17 7 25 0;
#X connect 17 8 26 0;
#X connect 17 9 27 0;
#X connect 17 10 28 0;
#X connect 17 11 29 0;
#X connect 17 12 30 0;
#X connect 17 13 31 0;
#X connect 17 14 32 0;
#X connect 17 15 33 0;
#X connect 18 0 34 0;
#X connect 19 0 34 0;
#X connect 20 0 34 0;
#X connect 21 0 34 0;
#X connect 22 0 34 0;
#X connect 23 0 34 0;
#X connect 24 0 34 0;
#X connect 25 0 34 0;
#X connect 26 0 34 0;
#X connect 27 0 34 0;
#X connect 28 0 34 0;
#X connect 29 0 34 0;
#X connect 30 0 34 0;
#X connect 31 0 34 0;
#X connect 32 0 34 0;
#X connect 33 0 34 0;
#X connect 34 0 35 0;
#X connect 36 0 1 0;
#X connect 37 0 2 0;
#X connect 38 0 3 0;
#X connect 39 0 4 0;
#X connect 40 0 6 0;
#X connect 41 0 5 0;
#X connect 42 0 7 0;
#X connect 43 0 8 0;
#X connect 44 0 9 0;
#X connect 45 0 10 0;
#X connect 46 0 11 0;
#X connect 47 0 12 0;
#X connect 48 0 13 0;
#X connect 49 0 14 0;
#X connect 50 0 15 0;
#X connect 51 0 16 0;
#X connect 52 0 1 0;
#X connect 52 1 2 0;
#X connect 52 2 3 0;
#X connect 52 3 4 0;
#X connect 52 4 5 0;
#X connect 52 5 6 0;
#X connect 52 6 7 0;
#X connect 52 7 8 0;
#X connect 52 8 9 0;
#X connect 52 9 10 0;
#X connect 52 10 11 0;
#X connect 52 11 12 0;
#X connect 52 12 13 0;
#X connect 52 13 14 0;
#X connect 52 14 15 0;
#X connect 52 15 16 0;
#X connect 53 0 52 0;
#X coords 0 -1 1 1 497 32 2 100 100;
